<svg xmlns="http://www.w3.org/2000/svg" viewBox="0 0 128 128">
  <path fill="#444444" d="M126.67 98.44c-4.56 1.16-7.38.05-9.91-3.75-5.68-8.51-11.95-16.63-18-24.9-.78-1.07-1.59-2.12-2.6-3.45C89 73.49 81.5 82.27 74.27 91.21c-2.6 3.25-5.49 4.64-9.94 3.44l26.09-32.58L67.6 29.71c4.31-.84 7.29-.41 9.93 3.45 5.83 8.52 12.26 16.63 18.67 25.21 6.45-8.55 12.8-16.67 18.8-25.11 2.6-3.48 5.37-4.81 9.78-3.45l-24.1 31.08 26.39 37.55zM1.33 61.74c.72-3.61 1.2-7.29 2.2-10.83 6-21.43 30.6-30.34 47.5-17.06C59.99 41.37 63.2 52.7 63.88 65c.32 6.01.14 6.02-5.86 6.02H9.07c-1.61 26.00 15.87 40.30 41.68 33.04 7.31-2.09 12.22-7.00 15.88-13.32 1.63-2.83 3.13-3.70 6.24-2.26-1.75 7.01-5.44 12.79-11.35 16.88-23.15 16.12-57.52 3.92-60.50-26.12-.23-2.46-.48-4.90-.72-7.36v-9.14zm6.17-.88h51.45c-.88-16.15-9.57-28.35-24.14-30.50-15.35-2.29-27.22 7.42-27.31 30.50z"/>
</svg>
