<svg xmlns="http://www.w3.org/2000/svg" viewBox="0 0 24 24" role="img">
  <title>Node.js</title>
  <path fill="#339933" d="M11.998 24a2.37 2.37 0 0 1-1.185-.317L8.006 21.97c-.376-.21-.19-.284-.068-.327.476-.165.573-.202 1.08-.489.054-.03.126-.019.181.014l2.186 1.298a.28.28 0 0 0 .27 0l8.515-4.915a.27.27 0 0 0 .136-.237V6.686a.275.275 0 0 0-.138-.24l-8.51-4.91a.27.27 0 0 0-.27 0L2.873 6.447a.275.275 0 0 0-.138.24v9.826c0 .098.052.188.138.237l2.33 1.346c1.266.633 2.04-.113 2.04-.862V7.486a.247.247 0 0 1 .248-.248h1.081a.247.247 0 0 1 .248.248v9.748c0 1.686-.92 2.652-2.52 2.652-.49 0-.878 0-1.96-.532L1.65 18.183A2.37 2.37 0 0 1 .464 16.14V6.314A2.37 2.37 0 0 1 1.65 4.27L10.162.36a2.427 2.427 0 0 1 2.37 0l8.51 4.912a2.37 2.37 0 0 1 1.186 2.043v9.826a2.37 2.37 0 0 1-1.186 2.044l-8.51 4.914a2.37 2.37 0 0 1-1.185.317zm2.629-6.74c-3.73 0-4.508-1.712-4.508-3.149a.247.247 0 0 1 .248-.248h1.103a.247.247 0 0 1 .248.215c.17 1.145.677 1.722 2.916 1.722 1.795 0 2.558-.406 2.558-1.358 0-.549-.217-.956-3.007-1.23-2.332-.23-3.774-.745-3.774-2.608 0-1.718 1.448-2.742 3.875-2.742 2.723 0 4.072.945 4.241 2.975a.25.25 0 0 1-.064.186.245.245 0 0 1-.18.078h-1.108a.246.246 0 0 1-.24-.196c-.265-1.18-.91-1.558-2.649-1.558-1.95 0-2.178.68-2.178 1.188 0 .617.268.796 2.915 1.143 2.621.343 3.863.828 3.863 2.683 0 1.854-1.547 2.9-4.257 2.9z"/>
</svg>
